<svg id="Layer_1" xmlns="http://www.w3.org/2000/svg" viewBox="0 0 185.36108 60.0005"><style>.st0{fill:#F47E47;} .st1{fill:#FFFFFF;} .st2{fill:#E65525;} .st3{fill:none;} .st4{fill:#78787A;}</style><path class="st0" d="M25.117.006C30.64.006 36.16-.01 41.683.01c5.223.02 8.31 3.184 8.313 8.48.004 8.897.002 17.795 0 26.693 0 12.823-9.184 23.04-21.808 24.613C14.04 61.56 2.758 51.66.69 40.563c-.376-2.025-.63-4.104-.65-6.16C-.026 26.02.01 17.643.014 9.265.018 3.023 3.017.01 9.214.005c5.3-.002 10.6 0 15.903 0zM147.84 46.443c-.78 0-1.42-.66-1.42-1.42 0-.78.64-1.42 1.42-1.42s1.42.64 1.42 1.42c0 .76-.64 1.42-1.42 1.42zm11.02-1.06c-.7.64-1.7 1.08-3.1 1.08-2.94 0-5-2.14-5-5.08 0-2.922 2.06-5.063 5-5.063 1.48 0 2.72.522 3.26 1.3.1.12.14.28.14.442 0 .56-.5.92-1 .92-.22 0-.44-.06-.62-.2-.5-.38-1.06-.56-1.68-.56-1.74 0-2.9 1.3-2.9 3.16s1.16 3.18 2.9 3.18c.64 0 1.18-.2 1.68-.58.2-.14.4-.2.62-.2.52 0 1.02.38 1.02.94 0 .24-.1.5-.32.66zm6.12 1.08c-3.1 0-4.98-2.3-4.98-5.08 0-2.762 1.88-5.063 4.98-5.063 3.1 0 4.98 2.3 4.98 5.063 0 2.78-1.88 5.08-4.98 5.08zm0-8.24c-1.78 0-2.76 1.478-2.76 3.16 0 1.7.98 3.18 2.76 3.18 1.76 0 2.74-1.48 2.74-3.18 0-1.682-.98-3.16-2.74-3.16zm19.283 8.12c-.58 0-1.062-.48-1.062-1.06V39.94c0-1.018-.44-1.718-1.56-1.718-.94 0-1.8.66-2.22 1.26v5.8c0 .58-.48 1.062-1.08 1.062s-1.06-.48-1.06-1.06V39.94c0-1.018-.46-1.718-1.58-1.718-.92 0-1.78.66-2.2 1.28v5.78c0 .58-.48 1.062-1.08 1.062-.6 0-1.06-.48-1.06-1.06V37.48c0-.558.46-1.04 1.1-1.04.56 0 1.04.482 1.04 1.042v.4c.4-.6 1.68-1.562 3.14-1.562 1.44 0 2.32.72 2.64 1.782.56-.88 1.84-1.782 3.3-1.782 1.76 0 2.78.96 2.78 2.922v6.04c0 .58-.476 1.062-1.1 1.062h.004zm-114.004-.12h-6.82c-.8 0-1.44-.66-1.44-1.44V34.32c0-.78.64-1.44 1.44-1.44h6.82c.56 0 1.02.46 1.02 1.06 0 .58-.46 1.04-1.02 1.04h-5.88v3.4h5.74c.56 0 1.02.462 1.02 1.06 0 .582-.46 1.042-1.02 1.042h-5.74v3.64h5.88c.56 0 1.02.46 1.02 1.02 0 .622-.46 1.08-1.02 1.08zm4.096.12c-.6 0-1.06-.48-1.06-1.06V33.8c0-.56.46-1.04 1.1-1.04.56 0 1.04.48 1.04 1.04v11.483c0 .58-.48 1.06-1.08 1.06zm11.11 0c-.6 0-1.06-.48-1.06-1.06V44.9c-.76.98-1.86 1.56-3.1 1.56-2.46 0-4.28-1.88-4.28-5.06 0-3.12 1.8-5.082 4.28-5.082 1.2 0 2.32.56 3.1 1.56v-4.06c0-.58.46-1.06 1.1-1.06.56 0 1.04.48 1.04 1.06V45.28c0 .58-.48 1.06-1.08 1.06v.004zm-1.06-6.84c-.48-.72-1.48-1.28-2.48-1.28-1.64 0-2.7 1.32-2.7 3.18 0 1.84 1.06 3.16 2.7 3.16 1 0 2-.56 2.48-1.26v-3.8zm12.16 2.58h-6.364c.14 1.44 1.24 2.66 3.042 2.66.7 0 1.5-.22 2.16-.64.14-.08.3-.12.44-.12.44 0 .9.36.9.88 0 1.1-2.48 1.6-3.72 1.6-2.9 0-5.06-2.02-5.06-5.08 0-2.8 2.04-5.063 4.9-5.063 2.26 0 3.9 1.362 4.5 3.442.12.4.24.86.24 1.28 0 .56-.46 1.04-1.04 1.04zm-3.7-4.04c-1.76 0-2.583 1.4-2.683 2.56h5.363c-.04-1.12-.8-2.56-2.68-2.56zm10.603.438c-.86.084-1.68.444-2.2 1.184v5.62c0 .58-.48 1.062-1.06 1.062h-.04c-.58 0-1.04-.48-1.04-1.06V37.48c0-.558.46-1.04 1.1-1.04.56 0 1.04.482 1.04 1.042v.5c.52-.7 1.28-1.54 2.3-1.54.58 0 .94.4.94.92 0 .64-.44 1.04-1.04 1.12zm13.955-3.74c.16.2.26.46.26.7 0 .62-.52 1.1-1.14 1.1-.3 0-.62-.12-.86-.38-.76-.86-1.86-1.38-2.96-1.38-2.62 0-4.562 2-4.562 4.783 0 2.76 1.942 4.78 4.562 4.78 1.1 0 2.2-.48 2.96-1.36.24-.24.56-.38.88-.38.62 0 1.1.5 1.1 1.08 0 .24-.08.5-.24.7-1.02 1.16-2.52 2.08-4.7 2.08-3.94 0-7-2.8-7-6.9s3.06-6.902 7-6.902c2.18 0 3.68.92 4.7 2.08zm9.26 11.605h-.12c-.28 0-.96-.24-.96-.98v-.18c-.7.82-1.84 1.28-3.1 1.28-1.58 0-3.38-1.062-3.38-3.2 0-2.222 1.8-3.142 3.38-3.142 1.28 0 2.42.42 3.1 1.24v-1.48c0-1.1-.92-1.78-2.24-1.78-.84 0-1.6.22-2.3.74-.12.08-.28.14-.44.14-.4 0-.84-.32-.84-.84 0-.16.06-.34.16-.46.76-.96 2.54-1.362 3.76-1.362 2.14 0 4.04.9 4.04 3.503v5.46c0 .58-.48 1.062-1.06 1.062zm-1.08-3.78c-.48-.642-1.36-.962-2.28-.962-1.14 0-2.02.64-2.02 1.7 0 1.02.88 1.68 2.02 1.68.92 0 1.8-.32 2.28-.98v-1.44.002zm8.33-4.083c-.86.083-1.68.443-2.2 1.183v5.62c0 .58-.48 1.062-1.06 1.062h-.04c-.58 0-1.04-.48-1.04-1.06V37.48c0-.558.46-1.04 1.1-1.04.56 0 1.04.482 1.04 1.042v.5c.52-.7 1.28-1.54 2.3-1.54.58 0 .94.4.94.92 0 .64-.44 1.04-1.04 1.12zm9.964 3.602h-6.36c.14 1.44 1.24 2.66 3.04 2.66.7 0 1.5-.218 2.16-.64.14-.08.3-.12.44-.12.44 0 .9.36.9.88 0 1.1-2.48 1.6-3.72 1.6-2.903 0-5.063-2.02-5.063-5.08 0-2.8 2.04-5.062 4.9-5.062 2.262 0 3.903 1.362 4.502 3.442.12.4.24.86.24 1.28 0 .56-.46 1.04-1.04 1.04zm-3.7-4.04c-1.76 0-2.58 1.4-2.68 2.56h5.36c-.04-1.12-.8-2.56-2.68-2.56z"/><path class="st1" d="M43.028 33.17c-.467-.304-1.17-.624-1.87-.423-.383.11-.702.364-.9.714-.374.67-.807 1.325-1.292 1.95l-1.86-2.786c.068-.016.135-.033.2-.053 2.063-.592 3.257-2.752 2.664-4.813-.444-1.545-1.82-2.67-3.423-2.8l-.07-.004c-.085-.005-.17-.01-.256-.008l-.114.003c-.083.003-.167.007-.233.013l-.053.007c-.153.016-.307.043-.486.084l-.118.03c-.03.006-.057.014-.084.022l-.04.013c-.43.123-.87.314-1.31.568l-.028.018c-.2.118-.397.246-.587.38l-.02.016c-.006.003-.036.025-.042.03-.177.128-.328.248-.45.35-1.07-.21-2.317-.206-3.677.007.302-.61.292-1.355-.092-1.973l-.01-.017c-.48-.757-1.41-1.112-2.273-.864-.177.05-.35.126-.507.225l-6.65 4.126c-.42-1.457-.987-2.97-1.67-4.446-3.103-6.705-6.756-9.65-9.23-9.8-.558-.847-1.608-1.24-2.59-.958-.193.057-.38.138-.555.243-1.1.66-1.46 2.094-.796 3.196l6.784 11.3c.89 1.483 1.15 2.173 1.194 2.31l2.855 9.92c-.45-.29-.885-.6-1.298-.93-.39-.313-.89-.414-1.366-.277-.602.172-1 .663-1.248 1.017-.597.854-.423 2.034.397 2.688.864.69 1.8 1.317 2.787 1.858 4.805 2.64 10.703 3.25 16.18 1.673 5.457-1.57 10.118-5.2 12.79-9.96.51-.91.225-2.066-.65-2.637v-.004zm-21.745 5.825c6.15-1.768 9.904-4.256 11.577-5.563l3.255 4.883c-1.88 1.514-4.077 2.658-6.41 3.33-2.893.83-5.923.942-8.803.325l-.812-2.65c.402-.103.8-.212 1.193-.325z"/><path class="st2" d="M32.845 27.79l.11-.094c-1.267-.37-2.984-.338-4.875.1l1.486 2.572c1.035-.758 2.13-1.616 3.28-2.577zm-18.327-1.94l.052.087c.695.987 1.27 2.695 1.27 2.695h-.002c.195.5.382 1.04.546 1.608.105.363.166.636.194.84l2.16-1.342c-.392-1.773-1.054-3.737-1.98-5.736-2.664-5.758-6.517-9.696-8.82-9.11l6.235 10.382s.136.207.347.577h-.002zm8.057 8.782l.77-.378c1.382-.702 2.984-1.63 4.797-2.874l-1.784-3.086c-.587.203-1.182.442-1.778.718-2.332 1.08-4.233 2.512-5.42 3.957-.01-.414-.04-.85-.093-1.306l-1.792 1.112c-.103.064-.213.103-.325.122l1.034 3.374c.785-.158 2.35-.578 4.59-1.643z"/><path class="st3" d="M22.575 34.632l.77-.378c1.382-.703 2.984-1.63 4.797-2.874l-1.784-3.086-.49-.848-6.8 4.22-1.794 1.112c-.102.064-.212.103-.324.122l1.034 3.375c.785-.158 2.35-.578 4.59-1.643zm-3.905 3.883l1.348 4.4c3.21.81 6.686.76 9.996-.193 2.856-.82 5.456-2.28 7.59-4.2l-4.51-6.76s-4.482 4.45-14.423 6.753z"/><path class="st0" d="M42.416 34.11c-.375-.244-.96-.49-1.18-.1-.657 1.174-1.46 2.265-2.376 3.264l-3.987-5.978-.005-.058c.625.354 1.385.468 2.13.254 1.468-.423 2.317-1.957 1.894-3.426-.328-1.138-1.324-1.9-2.44-1.99l-.048-.004c-.06-.004-.12-.007-.18-.006-.027 0-.054 0-.08.002-.06.002-.12.004-.18.01l-.013.002c-.114.012-.23.032-.345.06-.043.01-.087.018-.13.03-.003 0-.006 0-.01.002l-.008.003c-.402.108-.78.285-1.114.478h-.002c-.203.12-.39.242-.55.36v-.003c-.006.005-.016.012-.024.02-.333.24-.558.446-.624.51-.07.056-.13.108-.186.156l-.11.095c-1.15.964-2.245 1.82-3.28 2.58L28.08 27.8l-.733-1.27.296-.183c.425-.264.556-.822.29-1.246v-.003c-.263-.424-.82-.555-1.245-.29l-7.95 4.932-2.16 1.34c-.028-.203-.09-.476-.193-.84-.163-.57-.35-1.106-.545-1.607 0 0-.573-1.708-1.268-2.695l-.053-.086c-.21-.37-.347-.575-.347-.575L7.94 14.892l-.303-.503c-.343-.575-1.085-.76-1.657-.417-.572.343-.758 1.085-.414 1.657l6.784 11.3c.908 1.514 1.213 2.283 1.31 2.578l3.584 12.458c-.48-.21-.953-.436-1.412-.69-.846-.463-1.65-1-2.393-1.592-.354-.28-.74.145-.995.51-.253.362-.174.884.18 1.166.814.65 1.698 1.24 2.626 1.75 4.548 2.497 10.136 3.072 15.33 1.578 5.175-1.488 9.593-4.926 12.12-9.432.22-.39.09-.903-.283-1.147zM16.95 32.9c.113-.02.223-.058.325-.122l1.793-1.112 6.8-4.22.49.848 1.784 3.086c-1.814 1.243-3.416 2.17-4.8 2.874l-.768.378c-2.24 1.064-3.805 1.485-4.59 1.643L16.95 32.9zm13.064 9.822c-3.31.952-6.784 1.002-9.995.194l-1.35-4.4c9.94-2.305 14.424-6.755 14.424-6.755l4.51 6.76c-2.134 1.92-4.734 3.38-7.59 4.204z"/><path class="st4" d="M66.84 16.653c1.147 0 1.706.616 2.036 1.433l2.335-.845c-.67-1.79-2.05-2.906-4.37-2.906-2.85 0-4.84 2.235-4.84 5.316s1.99 5.315 4.842 5.315c2.32 0 3.67-1.103 4.34-2.895l-2.304-.846c-.33.817-.89 1.42-2.035 1.42-1.432 0-2.206-1.22-2.206-2.996 0-1.777.775-2.995 2.208-2.995zM78.904 22.9c-.17-.042-.27-.157-.27-.43v-2.72c0-1.476-.79-2.55-3.125-2.55-2.22 0-2.924.945-3.268 1.905l1.936.717c.272-.53.587-.817 1.218-.817.56 0 .89.2.903.702.014.66-1.548.674-2.293.774-.974.13-2.364.588-2.364 2.265 0 1.418.99 2.22 2.294 2.22.758 0 1.776-.314 2.535-.93.13.66.56.86 1.174.86.66 0 1.376-.244 1.777-.388v-1.633c-.214.03-.386.057-.515.03l-.002-.003zm-2.62-.042c-.36.23-.775.386-1.133.444-.544.086-.99-.115-.99-.702 0-.473.346-.917 1.12-1.018.33-.043.716-.1 1.003-.23v1.506zm6.463-4.485c-.13-.86-.774-1.075-1.39-1.075-.66 0-1.376.243-1.777.387v1.705c.214-.03.386-.057.515-.03.172.044.258.16.258.43v4.945h2.407v-4.543c.215-.3.516-.616 1.118-.673.4-.046.73.083 1.017.2l.83-2.195c-.902-.53-2.42-.487-2.98.846zm6.375-1.175c-1.804 0-3.71 1.246-3.71 3.868 0 2.393 1.576 3.898 3.668 3.898 1.562 0 2.923-.845 3.568-2.293l-1.934-.7c-.345.66-.918 1.02-1.635 1.02-.63.04-1.09-.23-1.348-.747l5.03-1.174c0-2.565-1.792-3.87-3.64-3.87zm-1.604 3.453c.058-.914.73-1.43 1.447-1.502.602-.057 1.233.215 1.49.817l-2.937.688zm12.522 1.764c-.4.1-1.03.144-1.332.144-1.462 0-2.55-1.003-2.55-2.923s1.074-2.98 2.593-2.98c.788 0 1.504.286 2.135 1.017l1.59-1.66c-1.016-1.19-2.377-1.677-3.78-1.677-2.853 0-5.174 2.035-5.174 5.373 0 3.24 2.18 5.23 5.13 5.23 1.376 0 2.995-.43 3.91-1.232V19.95h-2.52v2.463zm10.757.387c-.172-.042-.258-.156-.258-.43V17.43h-2.408v4.814c-.344.29-.802.533-1.232.533-1.118 0-1.218-.817-1.218-1.792V17.43h-2.407v4.8c0 1.906 1.117 2.737 2.364 2.737.887 0 1.862-.416 2.535-1.175.13.83.702 1.074 1.36 1.074.66 0 1.377-.244 1.778-.387v-1.706c-.214.028-.386.057-.515.028zm2.708-5.5c-.66 0-1.376.242-1.777.386v1.705c.214-.03.387-.056.515-.03.173.045.26.16.26.43v4.946h2.407v-6.018c0-1.104-.66-1.42-1.405-1.42zm10.15 5.537c-.17-.043-.257-.158-.257-.43V13.98h-2.407v3.883c-.502-.415-1.12-.716-1.95-.716-2.005 0-3.395 1.72-3.395 3.883s1.39 3.883 3.37 3.883c1.002 0 1.732-.444 2.277-1.003.058.745.474.99 1.104.99.66 0 1.376-.245 1.777-.388v-1.705c-.214.03-.386.057-.515.03h-.002zm-2.664-1.39c0 .702-.717 1.332-1.65 1.332-.93 0-1.49-.63-1.49-1.777 0-1.132.56-1.75 1.46-1.75.62 0 1.38.417 1.68.947v1.245zm7.23 1.534c-.63.043-1.09-.23-1.346-.745l5.03-1.175c0-2.567-1.792-3.87-3.64-3.87-1.806 0-3.71 1.246-3.71 3.87 0 2.39 1.575 3.895 3.667 3.895 1.563 0 2.924-.845 3.57-2.292l-1.936-.702c-.344.66-.917 1.02-1.633 1.02zm-.114-3.84c.602-.06 1.233.215 1.49.817l-2.937.687c.056-.917.73-1.433 1.446-1.504zm-13.902-5.55c-.304 0-.572.16-.726.4-.153-.24-.42-.4-.727-.4-.476 0-.863.387-.863.864 0 .094.016.184.043.27.24.827 1.51 1.727 1.546 1.752v.002h.002v-.002c.037-.025 1.308-.925 1.547-1.753.028-.085.044-.175.044-.27 0-.476-.39-.863-.867-.863z"/></svg>